<svg xmlns="http://www.w3.org/2000/svg" height="1000" width="3000" viewBox="0 0 3000 1000">
<rect width="3000" height="1000" style="fill:none;"/>
<path d="M475.22,312.36c-95.2-3-174.94,69-178.07,160.61S368.78,641.38,464,644.39c3.68.18,7.55.18,11.23,0a211.15,211.15,0,0,0,140.87-58.5l58.56,62.75c-54,53.19-127.43,84-204.59,85.8-145.65,3.9-266.82-106.71-270.69-246.76,0-2.66-.18-5.32-.18-8.15,0-142.89,119.88-252.09,274.56-252.09,74.94.53,146.76,29.25,200.16,79.95l-57.82,70C580.73,337.71,529.54,314.13,475.22,312.36Z" style="fill:#000;"/>
<path d="M1004.08,230.28V730.19H904.64V230.28Z" style="fill:#000;"/>
<path d="M1450.62,313.07c-46.77,0-77.15,16.48-77.15,47.15,0,101.4,278.79,46.45,278,225.67,0,93.6-84.52,147.85-198.69,147.85-80.65-.54-158.54-28.9-219.5-80L1274.77,573a297.41,297.41,0,0,0,179.54,73.57c55.24,0,88.94-19.86,88.94-55,0-104.24-278.8-45-278.8-222.65,0-87.22,77.9-142.89,194.28-142.89a363.24,363.24,0,0,1,187.64,53.19l-40,82.78A343.92,343.92,0,0,0,1450.62,313.07Z" style="fill:#000;"/>
<path d="M2312.41,403.3c0,114.16-74.95,180.64-205.5,180.64H1993.48V731.08H1894V230.28h212.87C2237.46,230.28,2312.41,292.5,2312.41,403.3Zm-94.1,2.83c0-61.33-42.35-91.47-116.56-91.47H1993.48V498.85h108.27c74.21,0,116.56-30.85,116.56-93.6Z" style="fill:#000;"/>
<path d="M2847.16,624.36H2593.6l-46,106.36H2444.44l227.79-500.44h103.12L3000,730.19H2893.2Zm-35.54-82.08-90.41-209.89-92.07,209.89Z" style="fill:#000;"/>
<path d="M14,0V1000H0V0Z" style="fill:#000;"/>
</svg>
